<svg xmlns="http://www.w3.org/2000/svg" xmlns:xlink="http://www.w3.org/1999/xlink" version="1.1" x="0px" y="0px" viewBox="0 0 100 100" enable-background="new 0 0 100 100" xml:space="preserve"><path d="M73.4,27.85H26.6c-1.436,0-2.6,1.164-2.6,2.6s1.164,2.6,2.6,2.6h46.8c1.436,0,2.6-1.164,2.6-2.6S74.836,27.85,73.4,27.85z"></path><path d="M73.4,51.25H26.6c-1.436,0-2.6,1.164-2.6,2.6s1.164,2.6,2.6,2.6h46.8c1.436,0,2.6-1.164,2.6-2.6S74.836,51.25,73.4,51.25z"></path><path d="M61.7,79.85c1.436,0,2.6-1.164,2.6-2.6c0-1.436-1.164-2.6-2.6-2.6H38.3c-1.436,0-2.6,1.164-2.6,2.6  c0,1.436,1.164,2.6,2.6,2.6H61.7z"></path></svg>