<svg xmlns="http://www.w3.org/2000/svg" xmlns:xlink="http://www.w3.org/1999/xlink" version="1.1" x="0px" y="0px" viewBox="0 0 512 512" style="enable-background:new 0 0 512 512;" xml:space="preserve"><g><path d="M73.1,449.9c1,0,2-0.1,3-0.4L198.8,415c4.8-1.3,9.1-3.9,12.6-7.4l224.1-224.1   c9.3-9.3,14.4-21.6,14.4-34.6s-5.1-25.4-14.4-34.6l-37.7-37.7c-9.3-9.3-21.6-14.4-34.6-14.4s-25.4,5.1-34.6,14.4L104.4,300.5   c-3.5,3.5-6.1,7.9-7.4,12.6L62.5,436c-1.1,3.8,0,7.9,2.8,10.8C67.4,448.8,70.2,449.9,73.1,449.9z M203.8,389.8l-81.6-81.6   l182.1-182.1l81.6,81.6L203.8,389.8z M341.3,89.1c5.9-5.9,13.6-9.1,21.9-9.1c8.3,0,16.1,3.2,21.9,9.1l37.7,37.7   c5.9,5.9,9.1,13.6,9.1,21.9c0,8.3-3.2,16.1-9.1,21.9L398.6,195L317,113.4L341.3,89.1z M112.6,324.2l75.2,75.2L83.2,428.8   L112.6,324.2z"></path></g></svg>