<svg xmlns="http://www.w3.org/2000/svg" xmlns:xlink="http://www.w3.org/1999/xlink" version="1.1" x="0px" y="0px" viewBox="0 0 100 100" style="enable-background:new 0 0 100 100;" xml:space="preserve"><path d="M82.4,22.6l-5-5c-0.8-0.8-2-0.8-2.8,0L67.2,25H31c-3.3,0-6,2.7-6,6v38c0,3.3,2.7,6,6,6h38c3.3,0,6-2.7,6-6V32.8l7.4-7.4  C83.2,24.6,83.2,23.4,82.4,22.6z M78.2,24l-1.3,1.3l-2.2-2.2l1.3-1.3L78.2,24z M54.2,48H52v-2.2l21.3-21.3l2.2,2.2L54.2,48z M71,69  c0,1.1-0.9,2-2,2H31c-1.1,0-2-0.9-2-2V31c0-1.1,0.9-2,2-2h32.2L48.6,43.6C48.2,44,48,44.5,48,45v5c0,1.1,0.9,2,2,2h5  c0.5,0,1-0.2,1.4-0.6L71,36.8V69z"></path></svg>