<svg stroke="#ffffff" fill="#ffffff" xmlns:dc="http://purl.org/dc/elements/1.1/" xmlns:cc="http://creativecommons.org/ns#" xmlns:rdf="http://www.w3.org/1999/02/22-rdf-syntax-ns#" xmlns:svg="http://www.w3.org/2000/svg" xmlns="http://www.w3.org/2000/svg" xmlns:sodipodi="http://sodipodi.sourceforge.net/DTD/sodipodi-0.dtd" xmlns:inkscape="http://www.inkscape.org/namespaces/inkscape" version="1.1" x="0px" y="0px" viewBox="0 0 100 100"><g transform="translate(0,-952.36218)"><path style="font-size:medium;font-style:normal;font-variant:normal;font-weight:normal;font-stretch:normal;text-indent:0;text-align:start;text-decoration:none;line-height:normal;letter-spacing:normal;word-spacing:normal;text-transform:none;direction:ltr;block-progression:tb;writing-mode:lr-tb;text-anchor:start;baseline-shift:baseline;opacity:1;color:#000000;fill:#000000;fill-opacity:1;stroke:none;stroke-width:4.11764716999999970;marker:none;visibility:visible;display:inline;overflow:visible;enable-background:accumulate;font-family:Sans;-inkscape-font-specification:Sans" d="M 50 14 C 30.141435 14 14 30.14144 14 50 C 14 69.8586 30.141435 86 50 86 C 69.858564 86 86 69.8586 86 50 C 86 30.14144 69.858564 14 50 14 z M 50 18 C 67.696805 18 82 32.3032 82 50 C 82 67.6968 67.696805 82 50 82 C 32.303194 82 18 67.6968 18 50 C 18 32.3032 32.303194 18 50 18 z M 50 30 C 43.483072 30 38 35.48303 38 42 A 2.0002 2.0002 0 1 0 42 42 C 42 37.78677 45.78682 34 50 34 C 54.21318 34 58 37.78678 58 42 C 58.03012 45.46767 56.155491 47.25672 53.6875 49.5 C 52.453505 50.6216 51.088455 51.79745 49.96875 53.28125 C 48.849045 54.76515 48 56.66765 48 58.90625 L 48 60 A 2.0002 2.0002 0 1 0 52 60 L 52 58.90625 C 52 57.62045 52.389396 56.7037 53.15625 55.6875 C 53.923104 54.6713 55.099748 53.62785 56.375 52.46875 C 58.919827 50.15555 62.029712 47.02713 62 42 C 62 41.9895 62.000029 41.97925 62 41.96875 C 61.9823 35.46567 56.506382 30 50 30 z M 50 65 C 48.343144 65 47 66.3431 47 68 C 47 69.6568 48.343144 71 50 71 C 51.656856 71 53 69.6568 53 68 C 53 66.3431 51.656856 65 50 65 z " transform="translate(0,952.36218)"></path></g></svg>